<?xml version="1.0" encoding="UTF-8"?>
<svg id="Layer_2" data-name="Layer 2" xmlns="http://www.w3.org/2000/svg" viewBox="0 0 82.93 82.93">
  <defs>
    <style>
      .cls-1 {
        fill: #1e1c19;
      }

      .cls-2 {
        fill: #f9f4ed;
      }
    </style>
  </defs>
  <g id="Layer_1-2" data-name="Layer 1">
    <g>
      <rect class="cls-2" x="0" y="0" width="82.93" height="82.93" rx="10.95" ry="10.95"/>
      <polygon points="41.44 41.49 41.48 41.43 41.48 41.49 41.44 41.49"/>
      <polygon points="41.48 41.49 41.44 41.49 41.44 41.43 41.48 41.49"/>
      <path class="cls-1" d="M73.44,38.24l-8.93-8.76v-12.74c0-2.03-1.64-3.67-3.67-3.67h-1.6c-2.03,0-3.67,1.64-3.67,3.67v3.97l-8.6-8.43c-3.05-2.99-7.93-2.99-10.98,0l-26.48,25.96c-1.71,1.68-.52,4.58,1.87,4.58h7.07v22.84c0,7.21.42,7.22,7.71,7.22h1.1v-16.73c0-2.2,1.78-3.99,3.99-3.99h4.38c2.2,0,3.99,1.79,3.99,3.99v16.73h17.19c7.06,0,7.71.11,7.71-7.22v-22.84h7.06c2.4,0,3.58-2.91,1.87-4.58Z"/>
    </g>
  </g>
</svg>